<svg xmlns="http://www.w3.org/2000/svg" xmlns:xlink="http://www.w3.org/1999/xlink" width="96" height="25" viewBox="0 0 96 25"><defs><style>.a{fill:none;}.b{clip-path:url(#a);}.c{fill:#152334;}.d{fill:#f5fcfc;}</style><clipPath id="a"><rect class="a" width="96" height="25"/></clipPath></defs><g class="b"><path class="c" d="M83.5,25h-71a12.5,12.5,0,0,1,0-25h71a12.5,12.5,0,0,1,0,25"/><path class="d" d="M11.68,18.41H9.78l1.12-3.8h1.9Zm1.84-6.26.08-.58H10.74l.28-1.9h1.34l-.24-1.14h2.66l.24,1.14h.74l.56-1.14h2.66l-.56,1.14h1.34l-.28,1.9H16.64l-.08.58h2.46l-.26,1.9H16.3l-.58,4.14a1.526,1.526,0,0,1-.55.95,1.574,1.574,0,0,1-1.03.37H11.52l1.12-1.14.62-4.32H10.78l.26-1.9Zm.84-5.9.08-.56-.5-.58h3.62L17.4,6.25h2.46l-.28,1.9H11.6l.28-1.9Zm2.22,8.36h1.9l.04,3.8h-1.9Zm4.24-8.36L28,5.11l-.28,1.9-4.26.68-.28,1.98h4.56l-.28,1.9H26.7l-1.12,7.94H22.72l1.12-7.94H22.9l-1.12,7.94H18.94Z"/><path class="d" d="M43,5.11,41.02,8.19l5.64,11.32h-3.8L38.9,11.47l-5.16,8.04h-3.8l8.92-13.9-.42-.5Z"/><path class="d" d="M53.86,9.17l-1.68,7.52H49.14l1.68-7.52Zm2.98,7.62H61.4l.9-.92-.46,3.2H53.12L54.84,6.85l-.66-.74h4.16ZM62.02,5.15l.2,4.62H59.18l-.2-4.62Zm4.22,3.54-.42,9.1H62.74l.42-9.1Z"/><path class="d" d="M68.48,19.45l1.2-8.48H68.64l.28-2.02h4.32l-1.06,7.52.92-.28-.3,2.06ZM72.82,5.49l.48,2.48H70.26l-.48-2.48Zm11.44,8.16-.78,5.54H73.12l.78-5.54ZM76.84,8.27l.46-.92H74.4l.26-1.8H85.72l-.26,1.8h-4.9l-.46.92h4.72l-.44,3.06h.84l-.24,1.76H73.44l.24-1.76h1.64l.62-1.26H74.5l.26-1.8Zm3.68,9.16.28-2.02H76.84l-.28,2.02ZM79.2,10.07l-.62,1.26h2.74l.18-1.26Z"/></g></svg>